<svg width="58" height="58" viewBox="0 0 58 58" fill="none" xmlns="http://www.w3.org/2000/svg">
    <path d="M-1.27944e-06 29C-2.67962e-06 12.9837 12.9837 3.93545e-06 29 2.53526e-06C45.0163 1.13507e-06 58 12.9837 58 29C58 43.4747 47.3951 55.4721 33.5313 57.6477L33.5313 37.3828L40.8945 37.3828L40.8945 29L33.5313 29L33.5313 22.6109C33.5312 15.3428 29.2018 11.3281 22.5775 11.3281C19.4047 11.3281 16.0859 11.8945 16.0859 11.8945L16.0859 19.0313L19.7428 19.0313C23.3453 19.0313 24.4687 21.2667 24.4687 23.5601L24.4688 29L16.4258 29L17.7115 37.3828L24.4688 37.3828L24.4688 57.6477C10.6049 55.4721 -1.40152e-08 43.4747 -1.27944e-06 29Z" fill="black"/>
    </svg>
    