<svg width="58" height="50" viewBox="0 0 58 50" fill="none" xmlns="http://www.w3.org/2000/svg">
    <path d="M52.0622 12.9034C52.0975 13.4278 52.0975 13.9522 52.0975 14.4814C52.0975 30.6066 40.1276 49.2038 18.24 49.2038V49.1942C11.7744 49.2038 5.44302 47.3045 0 43.7233C0.940158 43.8392 1.88503 43.8972 2.83226 43.8997C8.19045 43.9045 13.3955 42.0607 17.6109 38.6655C12.519 38.5665 8.05379 35.1616 6.49393 30.1909C8.27764 30.5437 10.1155 30.4713 11.8663 29.9807C6.31485 28.8305 2.32094 23.8283 2.32094 18.0191C2.32094 17.9659 2.32094 17.9152 2.32094 17.8644C3.97506 18.8093 5.8271 19.3337 7.72155 19.3917C2.49295 15.808 0.881251 8.67456 4.03868 3.09731C10.0802 10.7213 18.994 15.3561 28.5629 15.8467C27.6039 11.6082 28.914 7.16667 32.0054 4.18715C36.7981 -0.433174 44.3359 -0.196358 48.8411 4.71636C51.5061 4.17748 54.0603 3.17464 56.3977 1.75374C55.5094 4.57862 53.6503 6.97819 51.1668 8.50299C53.5254 8.21784 55.8299 7.57022 58 6.58188C56.4024 9.03703 54.3902 11.1756 52.0622 12.9034Z" fill="black"/>
    </svg>
    